<?xml version="1.0" encoding="UTF-8" standalone="no"?>
<!-- Created with Inkscape (http://www.inkscape.org/) -->

<svg
   xmlns:dc="http://purl.org/dc/elements/1.1/"
   xmlns:cc="http://creativecommons.org/ns#"
   xmlns:rdf="http://www.w3.org/1999/02/22-rdf-syntax-ns#"
   xmlns:svg="http://www.w3.org/2000/svg"
   xmlns="http://www.w3.org/2000/svg"
   xmlns:sodipodi="http://sodipodi.sourceforge.net/DTD/sodipodi-0.dtd"
   xmlns:inkscape="http://www.inkscape.org/namespaces/inkscape"
   width="512"
   height="512"
   viewBox="0 0 135.46667 135.46667"
   version="1.1"
   id="svg8"
   inkscape:version="0.92.4 (5da689c313, 2019-01-14)"
   sodipodi:docname="edit.games-logo.svg"
   inkscape:export-filename="C:\Users\Name\Videos\位图.png"
   inkscape:export-xdpi="96"
   inkscape:export-ydpi="96">
  <defs
     id="defs2" />
  <sodipodi:namedview
     id="base"
     pagecolor="#ffffff"
     bordercolor="#666666"
     borderopacity="1.0"
     inkscape:pageopacity="0.0"
     inkscape:pageshadow="2"
     inkscape:zoom="1.5585938"
     inkscape:cx="256"
     inkscape:cy="256"
     inkscape:document-units="px"
     inkscape:current-layer="layer1"
     showgrid="false"
     units="px"
     inkscape:window-width="1920"
     inkscape:window-height="1001"
     inkscape:window-x="-9"
     inkscape:window-y="-9"
     inkscape:window-maximized="1"
     showguides="true"
     inkscape:guide-bbox="true">
    <sodipodi:guide
       position="67.733335,67.733335"
       orientation="1,0"
       id="guide887"
       inkscape:locked="false"
       inkscape:label=""
       inkscape:color="rgb(0,0,255)" />
    <sodipodi:guide
       position="67.733335,67.733335"
       orientation="0,1"
       id="guide889"
       inkscape:locked="false"
       inkscape:label=""
       inkscape:color="rgb(0,0,255)" />
  </sodipodi:namedview>
  <metadata
     id="metadata5">
    <rdf:RDF>
      <cc:Work
         rdf:about="">
        <dc:format>image/svg+xml</dc:format>
        <dc:type
           rdf:resource="http://purl.org/dc/dcmitype/StillImage" />
        <dc:title></dc:title>
      </cc:Work>
    </rdf:RDF>
  </metadata>
  <g
     inkscape:label="Layer 1"
     inkscape:groupmode="layer"
     id="layer1"
     transform="translate(0,-161.53335)">
    <g
       aria-label="edit"
       style="font-style:normal;font-weight:normal;font-size:10.58333302px;line-height:1.25;font-family:sans-serif;letter-spacing:0px;word-spacing:0px;fill:#000000;fill-opacity:1;stroke:none;stroke-width:0.26458332"
       id="text827"
       transform="matrix(0.90090092,0,0,0.90090092,-70.599236,219.73139)">
      <path
         d="m 122.84095,2.2001966 6.94531,1.1658203 q -1.33946,3.8199218 -4.2416,5.8291015 -2.87735,1.9843746 -7.21817,1.9843746 -6.8709,0 -10.16992,-4.489648 -2.60449,-3.5966797 -2.60449,-9.0785155 0,-6.5484374 3.42305,-10.2443355 3.42304,-3.720703 8.65683,-3.720703 5.87871,0 9.27695,3.894335 3.39825,3.8695317 3.24942,11.88144562 h -17.4625 q 0.0744,3.10058588 1.68672,4.83691398 1.6123,1.7115234 4.01836,1.7115234 1.63711,0 2.75332,-0.8929687 1.11621,-0.8929687 1.68672,-2.8773437 z m 0.39687,-7.0445312 q -0.0744,-3.0261718 -1.5627,-4.5888671 -1.48828,-1.5875003 -3.62148,-1.5875003 -2.28203,0 -3.77031,1.6619144 -1.48828,1.661914 -1.46348,4.514453 z"
         style="font-style:normal;font-variant:normal;font-weight:bold;font-stretch:normal;font-size:50.79999924px;font-family:Arial;-inkscape-font-specification:'Arial Bold';stroke-width:0.26458332"
         id="path850"
         inkscape:connector-curvature="0" />
      <path
         d="m 160.02317,10.584181 h -6.47402 V 6.7146496 q -1.61231,2.2572266 -3.81992,3.3734374 -2.18282,1.091406 -4.41524,1.091406 -4.53926,0 -7.78867,-3.6462887 -3.22461,-3.6710937 -3.22461,-10.2195311 0,-6.6972655 3.1502,-10.1699222 3.15019,-3.49746 7.9623,-3.49746 4.41524,0 7.63984,3.671093 V -25.77949 h 6.97012 z M 141.41966,-3.1576158 q 0,4.2167968 1.16582,6.101953 1.68672,2.7285156 4.71289,2.7285156 2.40605,0 4.09277,-2.0339844 1.68672,-2.058789 1.68672,-6.1267577 0,-4.5392577 -1.63711,-6.5236327 -1.63711,-2.00918 -4.19199,-2.00918 -2.48047,0 -4.16719,1.9843753 -1.66191,1.9595703 -1.66191,5.8787109 z"
         style="font-style:normal;font-variant:normal;font-weight:bold;font-stretch:normal;font-size:50.79999924px;font-family:Arial;-inkscape-font-specification:'Arial Bold';stroke-width:0.26458332"
         id="path852"
         inkscape:connector-curvature="0" />
      <path
         d="m 166.91887,-19.330272 v -6.449218 h 6.97012 v 6.449218 z m 0,29.914453 v -26.342578 h 6.97012 v 26.342578 z"
         style="font-style:normal;font-variant:normal;font-weight:bold;font-stretch:normal;font-size:50.79999924px;font-family:Arial;-inkscape-font-specification:'Arial Bold';stroke-width:0.26458332"
         id="path854"
         inkscape:connector-curvature="0" />
      <path
         d="m 193.08782,-15.758397 v 5.55625 h -4.7625 V 0.41425911 q 0,3.22460929 0.12402,3.77031249 0.14883,0.5208984 0.62012,0.868164 0.49609,0.3472656 1.19063,0.3472656 0.96738,0 2.80293,-0.6697265 l 0.59531,5.4074213 q -2.43086,1.041797 -5.50664,1.041797 -1.88516,0 -3.39824,-0.620117 -1.51309,-0.6449217 -2.23243,-1.6371092 -0.69453,-1.0169922 -0.96738,-2.7285156 -0.22324,-1.2154297 -0.22324,-4.911328 V -10.202147 h -3.19981 v -5.55625 h 3.19981 v -5.233789 l 6.99492,-4.067969 v 9.301758 z"
         style="font-style:normal;font-variant:normal;font-weight:bold;font-stretch:normal;font-size:50.79999924px;font-family:Arial;-inkscape-font-specification:'Arial Bold';stroke-width:0.26458332"
         id="path856"
         inkscape:connector-curvature="0" />
    </g>
    <g
       aria-label=".games"
       style="font-style:normal;font-weight:normal;font-size:10.58333302px;line-height:1.25;font-family:sans-serif;letter-spacing:0px;word-spacing:0px;fill:#ff0000;fill-opacity:1;stroke:none;stroke-width:0.26458332"
       id="text827-9"
       transform="matrix(0.46969031,0,0,0.46969031,-59.976414,215.36957)">
      <path
         d="m 176.10633,62.092205 v -6.970117 h 6.97011 v 6.970117 z"
         style="font-style:normal;font-variant:normal;font-weight:bold;font-stretch:normal;font-size:50.79999924px;font-family:Arial;-inkscape-font-specification:'Arial Bold';fill:#ff0000;stroke-width:0.26458332"
         id="path872"
         inkscape:connector-curvature="0" />
      <path
         d="m 189.55047,63.828533 7.9623,0.967383 q 0.19844,1.389062 0.91778,1.909961 0.99218,0.74414 3.12539,0.74414 2.72851,0 4.09277,-0.818554 0.91777,-0.545703 1.38906,-1.761133 0.32246,-0.868164 0.32246,-3.199805 v -3.844726 q -3.12539,4.266406 -7.88789,4.266406 -5.3082,0 -8.40879,-4.489648 -2.43086,-3.547071 -2.43086,-8.830469 0,-6.622851 3.175,-10.120312 3.19981,-3.497461 7.9375,-3.497461 4.88653,0 8.06153,4.291211 v -3.695899 h 6.52363 v 23.638867 q 0,4.663281 -0.76895,6.970117 -0.76894,2.306836 -2.158,3.621485 -1.38907,1.314648 -3.72071,2.058789 -2.30683,0.74414 -5.8539,0.74414 -6.69727,0 -9.5002,-2.306836 -2.80293,-2.282031 -2.80293,-5.804296 0,-0.347266 0.0248,-0.84336 z m 6.22597,-15.45332 q 0,4.191992 1.61231,6.151562 1.63711,1.934766 4.01836,1.934766 2.55488,0 4.31601,-1.984375 1.76114,-2.00918 1.76114,-5.92832 0,-4.092774 -1.68672,-6.077148 -1.68672,-1.984375 -4.26641,-1.984375 -2.50527,0 -4.14238,1.95957 -1.61231,1.934765 -1.61231,5.92832 z"
         style="font-style:normal;font-variant:normal;font-weight:bold;font-stretch:normal;font-size:50.79999924px;font-family:Arial;-inkscape-font-specification:'Arial Bold';fill:#ff0000;stroke-width:0.26458332"
         id="path874"
         inkscape:connector-curvature="0" />
      <path
         d="m 226.45984,43.786346 -6.32519,-1.141016 q 1.0666,-3.819921 3.67109,-5.655468 2.60449,-1.835547 7.73906,-1.835547 4.66328,0 6.94532,1.116211 2.28203,1.091406 3.1998,2.802929 0.94258,1.686719 0.94258,6.225977 l -0.0744,8.135937 q 0,3.472656 0.32246,5.13457 0.34727,1.63711 1.26504,3.522266 h -6.8957 q -0.27285,-0.694531 -0.66973,-2.058789 -0.17363,-0.620117 -0.24804,-0.818555 -1.78594,1.736328 -3.81992,2.604492 -2.03399,0.868165 -4.34082,0.868165 -4.06797,0 -6.42442,-2.207618 -2.33164,-2.207617 -2.33164,-5.581054 0,-2.232422 1.0666,-3.96875 1.0666,-1.761133 2.97656,-2.678906 1.93477,-0.942578 5.55625,-1.63711 4.88653,-0.917773 6.77168,-1.711523 v -0.694531 q 0,-2.00918 -0.99218,-2.852539 -0.99219,-0.868164 -3.74551,-0.868164 -1.86035,0 -2.90215,0.74414 -1.0418,0.719336 -1.68672,2.554883 z m 9.32656,5.655469 q -1.33945,0.446484 -4.2416,1.066601 -2.90215,0.620117 -3.79511,1.21543 -1.36426,0.967383 -1.36426,2.455664 0,1.463476 1.0914,2.530078 1.09141,1.066601 2.77813,1.066601 1.88516,0 3.59668,-1.240234 1.26504,-0.942578 1.66191,-2.306836 0.27285,-0.892969 0.27285,-3.398242 z"
         style="font-style:normal;font-variant:normal;font-weight:bold;font-stretch:normal;font-size:50.79999924px;font-family:Arial;-inkscape-font-specification:'Arial Bold';fill:#ff0000;stroke-width:0.26458332"
         id="path876"
         inkscape:connector-curvature="0" />
      <path
         d="m 249.0073,35.749627 h 6.42442 v 3.59668 q 3.44785,-4.191992 8.21035,-4.191992 2.53008,0 4.39043,1.041797 1.86035,1.041797 3.05097,3.150195 1.73633,-2.108398 3.74551,-3.150195 2.00918,-1.041797 4.29121,-1.041797 2.90215,0 4.91133,1.190625 2.00918,1.16582 3.00137,3.447851 0.71933,1.686719 0.71933,5.457031 v 16.842383 h -6.97011 V 47.03576 q 0,-3.919141 -0.71934,-5.060156 -0.96738,-1.488281 -2.97656,-1.488281 -1.46348,0 -2.75332,0.892968 -1.28985,0.892969 -1.86035,2.629297 -0.57051,1.711524 -0.57051,5.432227 v 12.65039 h -6.97012 V 47.655877 q 0,-3.844726 -0.37207,-4.960937 -0.37207,-1.116211 -1.16582,-1.661914 -0.76894,-0.545703 -2.1084,-0.545703 -1.6123,0 -2.90215,0.868164 -1.28984,0.868164 -1.86035,2.505273 -0.5457,1.637109 -0.5457,5.432226 v 12.799219 h -6.97012 z"
         style="font-style:normal;font-variant:normal;font-weight:bold;font-stretch:normal;font-size:50.79999924px;font-family:Arial;-inkscape-font-specification:'Arial Bold';fill:#ff0000;stroke-width:0.26458332"
         id="path878"
         inkscape:connector-curvature="0" />
      <path
         d="m 309.92762,53.708221 6.94531,1.16582 q -1.33946,3.819922 -4.2416,5.829102 -2.87735,1.984375 -7.21817,1.984375 -6.8709,0 -10.16992,-4.489649 -2.60449,-3.596679 -2.60449,-9.078515 0,-6.548438 3.42304,-10.244336 3.42305,-3.720703 8.65684,-3.720703 5.87871,0 9.27695,3.894336 3.39825,3.869531 3.24942,11.881445 h -17.4625 q 0.0744,3.100586 1.68672,4.836914 1.6123,1.711523 4.01836,1.711523 1.63711,0 2.75332,-0.892968 1.11621,-0.892969 1.68672,-2.877344 z m 0.39687,-7.044531 q -0.0744,-3.026172 -1.5627,-4.588867 -1.48828,-1.5875 -3.62148,-1.5875 -2.28203,0 -3.77031,1.661914 -1.48828,1.661914 -1.46348,4.514453 z"
         style="font-style:normal;font-variant:normal;font-weight:bold;font-stretch:normal;font-size:50.79999924px;font-family:Arial;-inkscape-font-specification:'Arial Bold';fill:#ff0000;stroke-width:0.26458332"
         id="path880"
         inkscape:connector-curvature="0" />
      <path
         d="m 320.49441,54.576385 6.99492,-1.066602 q 0.44649,2.033985 1.81075,3.100586 1.36425,1.041797 3.81992,1.041797 2.70371,0 4.06797,-0.992187 0.91777,-0.694532 0.91777,-1.860352 0,-0.79375 -0.49609,-1.314648 -0.5209,-0.496094 -2.33164,-0.917774 -8.4336,-1.860351 -10.69082,-3.398242 -3.12539,-2.133203 -3.12539,-5.92832 0,-3.423047 2.70371,-5.754688 2.70371,-2.33164 8.38398,-2.33164 5.40742,0 8.03672,1.761133 2.6293,1.761132 3.62148,5.208984 l -6.57324,1.21543 q -0.42168,-1.537891 -1.6123,-2.356446 -1.16582,-0.818554 -3.34864,-0.818554 -2.75332,0 -3.94394,0.768945 -0.79375,0.545703 -0.79375,1.413867 0,0.744141 0.69453,1.265039 0.94258,0.694531 6.49883,1.95957 5.58105,1.265039 7.78867,3.100586 2.18281,1.860352 2.18281,5.18418 0,3.621484 -3.02617,6.225976 -3.02617,2.604493 -8.95449,2.604493 -5.38262,0 -8.53281,-2.182813 -3.12539,-2.182812 -4.09278,-5.92832 z"
         style="font-style:normal;font-variant:normal;font-weight:bold;font-stretch:normal;font-size:50.79999924px;font-family:Arial;-inkscape-font-specification:'Arial Bold';fill:#ff0000;stroke-width:0.26458332"
         id="path882"
         inkscape:connector-curvature="0" />
    </g>
  </g>
</svg>
